<svg xmlns="http://www.w3.org/2000/svg" viewBox="0 0 192 192">
  <defs>
    <linearGradient id="bg" x1="0%" y1="0%" x2="100%" y2="100%">
      <stop offset="0%" stop-color="#0f172a" />
      <stop offset="100%" stop-color="#1e1b4b" />
    </linearGradient>
    <linearGradient id="accent" x1="0%" y1="0%" x2="100%" y2="0%">
      <stop offset="0%" stop-color="#22d3ee" />
      <stop offset="50%" stop-color="#8b5cf6" />
      <stop offset="100%" stop-color="#f472b6" />
    </linearGradient>
    <filter id="glow" x="-20%" y="-20%" width="140%" height="140%">
      <feGaussianBlur stdDeviation="6" result="blur" />
      <feMerge>
        <feMergeNode in="blur" />
        <feMergeNode in="SourceGraphic" />
      </feMerge>
    </filter>
  </defs>
  <rect width="192" height="192" rx="32" fill="url(#bg)" />
  <g filter="url(#glow)">
    <path d="M96 56c-22.091 0-40 17.909-40 40v20a20 20 0 0 0 12 18.4v11.6a8 8 0 0 0 8 8h40a8 8 0 0 0 8-8v-11.6A20 20 0 0 0 136 116V96c0-22.091-17.909-40-40-40zm0 16c13.255 0 24 10.745 24 24v17.333A36 36 0 0 0 96 104a36 36 0 0 0-24 9.333V96c0-13.255 10.745-24 24-24z" fill="url(#accent)" />
    <circle cx="96" cy="124" r="12" fill="#f8fafc" />
  </g>
</svg>
